<svg width="1920" height="928" viewBox="0 0 1920 928" fill="none" xmlns="http://www.w3.org/2000/svg">
<g clip-path="url(#clip0_742_192)">
<rect width="1920" height="928" fill="#110F0F"/>
<path d="M2074.28 595.502C2070.98 601.495 2064.84 605.797 2056.07 608.455C2047.31 611.113 2035.96 612.111 2022.33 611.523C1995.08 610.347 1958.81 602.836 1916.04 589.747C1830.52 563.571 1719.12 515.117 1602.13 450.586C1485.14 386.055 1384.73 317.679 1316.97 259.303C1283.08 230.112 1257.38 203.44 1241.85 181.014C1234.08 169.801 1228.87 159.672 1226.45 150.839C1224.02 142.009 1224.38 134.52 1227.69 128.526C1230.99 122.533 1237.13 118.231 1245.9 115.573C1254.66 112.915 1266.01 111.917 1279.64 112.505C1306.89 113.681 1343.16 121.192 1385.93 134.281C1471.45 160.458 1582.85 208.911 1699.84 273.442C1816.83 337.973 1917.24 406.35 1985 464.725C2018.89 493.916 2044.59 520.588 2060.12 543.014C2067.89 554.228 2073.1 564.356 2075.52 573.189C2077.95 582.019 2077.59 589.508 2074.28 595.502Z" stroke="white" stroke-opacity="0.52"/>
<path d="M2039.71 658.184C2036.4 664.178 2030.26 668.48 2021.49 671.137C2012.73 673.796 2001.38 674.793 1987.75 674.205C1960.5 673.03 1924.23 665.519 1881.46 652.429C1795.94 626.253 1684.54 577.799 1567.55 513.268C1450.56 448.737 1350.15 380.361 1282.39 321.985C1248.51 292.795 1222.8 266.122 1207.27 243.697C1199.5 232.483 1194.3 222.354 1191.87 213.522C1189.44 204.692 1189.8 197.202 1193.11 191.209C1196.41 185.215 1202.56 180.913 1211.32 178.256C1220.09 175.597 1231.43 174.6 1245.06 175.188C1272.31 176.363 1308.58 183.874 1351.35 196.964C1436.88 223.14 1548.27 271.594 1665.26 336.125C1782.25 400.656 1882.66 469.032 1950.42 527.408C1984.31 556.598 2010.01 583.271 2025.54 605.696C2033.31 616.91 2038.52 627.039 2040.95 635.871C2043.37 644.701 2043.01 652.191 2039.71 658.184Z" stroke="white" stroke-opacity="0.52"/>
<path d="M2005.13 720.867C2001.83 726.861 1995.68 731.163 1986.92 733.82C1978.15 736.479 1966.81 737.476 1953.18 736.888C1925.93 735.713 1889.66 728.202 1846.89 715.112C1761.36 688.936 1649.97 640.482 1532.98 575.951C1415.99 511.42 1315.58 443.044 1247.82 384.669C1213.93 355.478 1188.23 328.806 1172.7 306.38C1164.93 295.166 1159.72 285.037 1157.29 276.205C1154.87 267.375 1155.23 259.885 1158.53 253.892C1161.84 247.898 1167.98 243.596 1176.75 240.939C1185.51 238.281 1196.86 237.283 1210.49 237.871C1237.74 239.047 1274.01 246.557 1316.78 259.647C1402.3 285.823 1513.7 334.277 1630.69 398.808C1747.68 463.339 1848.09 531.715 1915.85 590.091C1949.73 619.281 1975.44 645.954 1990.97 668.379C1998.74 679.593 2003.94 689.722 2006.37 698.554C2008.8 707.384 2008.44 714.874 2005.13 720.867Z" stroke="white" stroke-opacity="0.52"/>
<circle cx="1334.32" cy="108.5" r="26.5" fill="#B9FF66"/>
<ellipse cx="1248.82" cy="40.5" rx="40" ry="40.5" fill="white" fill-opacity="0.52"/>
</g>
<defs>
<clipPath id="clip0_742_192">
<rect width="1920" height="928" fill="white"/>
</clipPath>
</defs>
</svg>
