<svg width="528" height="953" viewBox="0 0 528 953" fill="none" xmlns="http://www.w3.org/2000/svg">
<g opacity="0.96">
<g opacity="0.21">
<mask id="mask0_742_33" style="mask-type:alpha" maskUnits="userSpaceOnUse" x="61" y="0" width="955" height="953">
<mask id="path-1-outside-1_742_33" maskUnits="userSpaceOnUse" x="60.2522" y="0" width="956" height="953" fill="black">
<rect fill="white" x="60.2522" width="956" height="953"/>
<path d="M538.411 238.253L568.409 1L568.175 240.126L627.703 8.49466L597.705 245.747L685.824 23.2498L626.297 255.116L741.602 45.2653L653.248 267.763L794.099 74.0729L678.559 283.923L842.377 109.438L701.761 302.894L886.203 150.425L722.15 324.676L924.404 196.564L739.727 349.033L956.511 247.153L754.258 375.265L982.057 301.255L765.273 403.135L1000.57 358.167L772.772 432.177L1011.82 416.954L776.522 461.687L1015.57 476.677L776.522 491.666L1011.82 536.4L772.772 521.41L1000.57 595.186L765.273 550.452L982.057 652.333L754.258 578.323L956.511 706.435L739.727 604.554L924.404 757.024L722.15 628.678L886.203 803.163L701.761 650.459L842.377 844.149L678.559 669.664L794.099 879.28L653.248 685.59L741.602 908.088L626.297 698.472L685.824 930.104L597.705 707.606L627.703 945.093L568.175 713.227L568.409 952.588L538.411 715.101L508.413 952.588V713.227L448.885 945.093L479.118 707.606L390.998 930.104L450.526 698.472L335.22 908.088L423.574 685.59L282.723 879.28L398.263 669.664L234.211 844.149L375.062 650.459L190.619 803.163L354.672 628.678L152.419 757.024L337.095 604.554L120.311 706.435L322.565 578.323L94.7658 652.333L311.55 550.452L76.2513 595.186L304.05 521.41L65.002 536.4L300.3 491.666L61.2522 476.677L300.3 461.687L65.002 416.954L304.05 432.177L76.2513 358.167L311.55 403.135L94.7658 301.255L322.565 375.265L120.311 247.153L337.095 349.033L152.419 196.564L354.672 324.676L190.619 150.425L375.062 302.894L234.211 109.438L398.263 283.923L282.723 74.0729L423.574 267.763L335.22 45.2653L450.526 255.116L390.998 23.2498L479.118 245.747L448.885 8.49466L508.413 240.126V1L538.411 238.253Z"/>
</mask>
<path d="M538.411 238.253L568.409 1L568.175 240.126L627.703 8.49466L597.705 245.747L685.824 23.2498L626.297 255.116L741.602 45.2653L653.248 267.763L794.099 74.0729L678.559 283.923L842.377 109.438L701.761 302.894L886.203 150.425L722.15 324.676L924.404 196.564L739.727 349.033L956.511 247.153L754.258 375.265L982.057 301.255L765.273 403.135L1000.57 358.167L772.772 432.177L1011.82 416.954L776.522 461.687L1015.57 476.677L776.522 491.666L1011.82 536.4L772.772 521.41L1000.57 595.186L765.273 550.452L982.057 652.333L754.258 578.323L956.511 706.435L739.727 604.554L924.404 757.024L722.15 628.678L886.203 803.163L701.761 650.459L842.377 844.149L678.559 669.664L794.099 879.28L653.248 685.59L741.602 908.088L626.297 698.472L685.824 930.104L597.705 707.606L627.703 945.093L568.175 713.227L568.409 952.588L538.411 715.101L508.413 952.588V713.227L448.885 945.093L479.118 707.606L390.998 930.104L450.526 698.472L335.22 908.088L423.574 685.59L282.723 879.28L398.263 669.664L234.211 844.149L375.062 650.459L190.619 803.163L354.672 628.678L152.419 757.024L337.095 604.554L120.311 706.435L322.565 578.323L94.7658 652.333L311.55 550.452L76.2513 595.186L304.05 521.41L65.002 536.4L300.3 491.666L61.2522 476.677L300.3 461.687L65.002 416.954L304.05 432.177L76.2513 358.167L311.55 403.135L94.7658 301.255L322.565 375.265L120.311 247.153L337.095 349.033L152.419 196.564L354.672 324.676L190.619 150.425L375.062 302.894L234.211 109.438L398.263 283.923L282.723 74.0729L423.574 267.763L335.22 45.2653L450.526 255.116L390.998 23.2498L479.118 245.747L448.885 8.49466L508.413 240.126V1L538.411 238.253Z" stroke="black" stroke-width="2" stroke-miterlimit="10" mask="url(#path-1-outside-1_742_33)"/>
</mask>
<g mask="url(#mask0_742_33)">
<rect x="-1153.83" y="-54.9751" width="1692.92" height="1032.14" rx="45" fill="white"/>
</g>
</g>
<path opacity="0.21" d="M140.557 691.336L207.677 727.907L140.557 764.772L103.839 831.745L67.1206 764.772L5.44285e-05 727.907L67.1206 691.336L103.839 624.068L140.557 691.336Z" fill="#B9FF66"/>
<path opacity="0.21" d="M318.814 358.675L438.754 424.025L318.814 489.9L253.201 609.578L187.588 489.9L67.6482 424.025L187.588 358.675L253.201 238.472L318.814 358.675Z" fill="#D4D4D4"/>
</g>
</svg>
