<svg width="1085" height="1052" viewBox="0 0 1085 1052" fill="none" xmlns="http://www.w3.org/2000/svg">
<path opacity="0.29" d="M149.812 246.505L149.645 247.411L148.977 246.777L-30.8605 76.1297L75.8617 299.898L76.2581 300.729L75.3452 300.609L-170.45 268.258L47.4177 386.561L48.2269 387L47.4177 387.439L-170.45 505.742L75.3452 473.391L76.2581 473.271L75.8617 474.102L-30.8605 697.87L148.977 527.223L149.645 526.589L149.812 527.495L195 771.257L240.188 527.495L240.355 526.589L241.023 527.223L420.861 697.87L314.138 474.102L313.742 473.271L314.655 473.391L560.45 505.742L342.582 387.439L341.773 387L342.582 386.561L560.45 268.258L314.655 300.609L313.742 300.729L314.138 299.898L420.861 76.1297L241.023 246.777L240.355 247.411L240.188 246.505L195 2.74325L149.812 246.505Z" stroke="white"/>
<path opacity="0.29" d="M-166.5 735.5C-166.5 744.405 -162.206 753.15 -153.924 761.653C-145.639 770.157 -133.396 778.385 -117.583 786.238C-85.9612 801.943 -40.1705 816.1 16.454 827.995C129.695 851.783 286.159 866.5 459 866.5C631.841 866.5 788.305 851.783 901.546 827.995C958.171 816.1 1003.96 801.943 1035.58 786.238C1051.4 778.385 1063.64 770.157 1071.92 761.653C1080.21 753.15 1084.5 744.405 1084.5 735.5C1084.5 726.595 1080.21 717.85 1071.92 709.347C1063.64 700.843 1051.4 692.615 1035.58 684.762C1003.96 669.057 958.171 654.9 901.546 643.005C788.305 619.217 631.841 604.5 459 604.5C286.159 604.5 129.695 619.217 16.454 643.005C-40.1705 654.9 -85.9612 669.057 -117.583 684.762C-133.396 692.615 -145.639 700.843 -153.924 709.347C-162.206 717.85 -166.5 726.595 -166.5 735.5Z" stroke="white"/>
<path opacity="0.29" d="M-166.5 827.5C-166.5 836.405 -162.206 845.15 -153.924 853.653C-145.639 862.157 -133.396 870.385 -117.583 878.238C-85.9612 893.943 -40.1705 908.1 16.454 919.995C129.695 943.783 286.159 958.5 459 958.5C631.841 958.5 788.305 943.783 901.546 919.995C958.171 908.1 1003.96 893.943 1035.58 878.238C1051.4 870.385 1063.64 862.157 1071.92 853.653C1080.21 845.15 1084.5 836.405 1084.5 827.5C1084.5 818.595 1080.21 809.85 1071.92 801.347C1063.64 792.843 1051.4 784.615 1035.58 776.762C1003.96 761.057 958.171 746.9 901.546 735.005C788.305 711.217 631.841 696.5 459 696.5C286.159 696.5 129.695 711.217 16.454 735.005C-40.1705 746.9 -85.9612 761.057 -117.583 776.762C-133.396 784.615 -145.639 792.843 -153.924 801.347C-162.206 809.85 -166.5 818.595 -166.5 827.5Z" stroke="white"/>
<path opacity="0.29" d="M-166.5 920.5C-166.5 929.405 -162.206 938.15 -153.924 946.653C-145.639 955.157 -133.396 963.385 -117.583 971.238C-85.9612 986.943 -40.1705 1001.1 16.454 1013C129.695 1036.78 286.159 1051.5 459 1051.5C631.841 1051.5 788.305 1036.78 901.546 1013C958.171 1001.1 1003.96 986.943 1035.58 971.238C1051.4 963.385 1063.64 955.157 1071.92 946.653C1080.21 938.15 1084.5 929.405 1084.5 920.5C1084.5 911.595 1080.21 902.85 1071.92 894.347C1063.64 885.843 1051.4 877.615 1035.58 869.762C1003.96 854.057 958.171 839.9 901.546 828.005C788.305 804.217 631.841 789.5 459 789.5C286.159 789.5 129.695 804.217 16.454 828.005C-40.1705 839.9 -85.9612 854.057 -117.583 869.762C-133.396 877.615 -145.639 885.843 -153.924 894.347C-162.206 902.85 -166.5 911.595 -166.5 920.5Z" stroke="white"/>
</svg>
